<?xml version="1.0" encoding="UTF-8"?>
<!DOCTYPE svg PUBLIC "-//W3C//DTD SVG 1.1//EN" "http://www.w3.org/Graphics/SVG/1.1/DTD/svg11.dtd">
<!-- Creator: CorelDRAW -->
<svg xmlns="http://www.w3.org/2000/svg" xml:space="preserve" width="64px" height="64px" shape-rendering="geometricPrecision" text-rendering="geometricPrecision" image-rendering="optimizeQuality" fill-rule="evenodd" clip-rule="evenodd"
viewBox="0 0 640 640"
 xmlns:xlink="http://www.w3.org/1999/xlink">
 <g id="Layer_x0020_1">
  <metadata id="CorelCorpID_0Corel-Layer"/>
  <path fill="black" d="M579.999 0l-519.999 0c-33.0004,0 -60.0007,27.0003 -60.0007,60.0007l0 519.999c0,33.0004 27.0003,60.0007 60.0007,60.0007l519.999 0c33.0004,0 60.0007,-27.0003 60.0007,-60.0007l0 -519.999c0,-33.0004 -27.0003,-60.0007 -60.0007,-60.0007zm-116.399 172.384l0 -84.3554 -84.3436 0 -8.44499 8.52766 -39.8627 75.8631 -12.4844 8.43317 -142.077 0 0 115.797 78.1073 0 6.99221 8.43317 -85.064 162.533 0 84.3554 84.3436 -0.0236223 8.43317 -8.52766 39.8627 -75.8395 12.4962 -8.44499 142.065 0.0118112 0 -115.797 -78.1073 0 -6.99221 -8.52766 85.0758 -162.439z"/>
 </g>
</svg>
