<?xml version="1.0" encoding="UTF-8"?>
<!DOCTYPE svg PUBLIC "-//W3C//DTD SVG 1.1//EN" "http://www.w3.org/Graphics/SVG/1.1/DTD/svg11.dtd">
<!-- Creator: CorelDRAW -->
<svg xmlns="http://www.w3.org/2000/svg" xml:space="preserve" width="64px" height="64px" shape-rendering="geometricPrecision" text-rendering="geometricPrecision" image-rendering="optimizeQuality" fill-rule="evenodd" clip-rule="evenodd"
viewBox="0 0 640 640"
 xmlns:xlink="http://www.w3.org/1999/xlink">
 <g id="Layer_x0020_1">
  <metadata id="CorelCorpID_0Corel-Layer"/>
  <path fill="black" d="M579.999 -0.0118112l-519.999 0c-33.0004,0 -60.0125,27.0121 -60.0125,60.0125l0 519.999c0,33.0004 27.0121,60.0125 60.0125,60.0125l519.999 0c33.0004,0 60.0125,-27.0121 60.0125,-60.0125l0 -519.999c0,-33.0004 -27.0121,-60.0125 -60.0125,-60.0125zm-216.18 173.801l73.1466 0 0 -87.7216 -73.1466 0c-56.3275,0 -102.285,45.9454 -102.285,102.344l0 43.8431 -58.4889 0 0 87.7452 58.4771 0 0 233.932 87.7334 0 0 -233.932 73.0757 0 14.634 -87.7452 -87.7097 0 0 -43.8431c0,-7.93711 6.69693,-14.634 14.5632,-14.634l0 0.0118112z"/>
 </g>
</svg>
