<?xml version="1.0" encoding="UTF-8"?>
<!DOCTYPE svg PUBLIC "-//W3C//DTD SVG 1.1//EN" "http://www.w3.org/Graphics/SVG/1.1/DTD/svg11.dtd">
<!-- Creator: CorelDRAW -->
<svg xmlns="http://www.w3.org/2000/svg" xml:space="preserve" width="64px" height="64px" shape-rendering="geometricPrecision" text-rendering="geometricPrecision" image-rendering="optimizeQuality" fill-rule="evenodd" clip-rule="evenodd"
viewBox="0 0 640 640"
 xmlns:xlink="http://www.w3.org/1999/xlink">
 <g id="Layer_x0020_1">
  <metadata id="CorelCorpID_0Corel-Layer"/>
  <path fill="black" d="M579.999 0l-519.999 0c-33.0004,0 -60.0007,27.0003 -60.0007,60.0007l0 519.999c0,33.0004 27.0003,60.0007 60.0007,60.0007l519.999 0c33.0004,0 60.0007,-27.0003 60.0007,-60.0007l0 -519.999c0,-33.0004 -27.0003,-60.0007 -60.0007,-60.0007zm-354.949 97.3477l189.912 0c71.3158,0 129.628,57.5913 129.628,127.95l0 189.404c0,70.3709 -58.3117,127.95 -129.628,127.95l-189.912 0c-71.304,0 -129.628,-57.5794 -129.628,-127.95l0 -189.404c0,-70.3591 58.3236,-127.95 129.628,-127.95zm93.7452 102.426c69.2961,0 125.541,56.233 125.541,125.541 0,69.3079 -56.2448,125.529 -125.541,125.529 -69.3198,0 -125.541,-56.2212 -125.541,-125.529 0,-69.3079 56.2212,-125.541 125.541,-125.541zm0 42.4021c45.8864,0 83.1388,37.2288 83.1388,83.1388 0,45.8982 -37.2524,83.1388 -83.1388,83.1388 -45.91,0 -83.1506,-37.2406 -83.1506,-83.1388 0,-45.91 37.2406,-83.1388 83.1506,-83.1388zm121.454 -59.7999c11.256,0 20.3743,9.11822 20.3743,20.3743 0,11.256 -9.11822,20.3861 -20.3743,20.3861 -11.256,0 -20.3861,-9.13003 -20.3861,-20.3861 0,-11.256 9.13003,-20.3743 20.3861,-20.3743zm-199.691 -48.6502l158.896 0c59.6582,0 108.45,48.5439 108.45,107.871l0 159.687c0,59.3275 -48.7919,107.871 -108.45,107.871l-158.896 0c-59.6464,0 -108.45,-48.5439 -108.45,-107.871l0 -159.687c0,-59.3275 48.8038,-107.871 108.45,-107.871z"/>
 </g>
</svg>
