<?xml version="1.0" encoding="utf-8"?>
<!-- Generator: Adobe Illustrator 16.0.0, SVG Export Plug-In . SVG Version: 6.00 Build 0)  -->
<!DOCTYPE svg PUBLIC "-//W3C//DTD SVG 1.1//EN" "http://www.w3.org/Graphics/SVG/1.1/DTD/svg11.dtd">
<svg version="1.1" id="Layer_1" xmlns="http://www.w3.org/2000/svg" xmlns:xlink="http://www.w3.org/1999/xlink" x="0px" y="0px"
	 width="307.724px" height="441.429px" viewBox="1.61 -1.066 307.724 441.429" enable-background="new 1.61 -1.066 307.724 441.429"
	 xml:space="preserve">
<g>
	<path fill="#BFBFBF" stroke="#000000" stroke-width="2" stroke-miterlimit="10" d="M308.332,20.363l-0.615-0.5l-25.2-19.844
		c-0.063-0.002-0.122-0.016-0.184-0.02v0.363H66.322c-0.5,0.092-1,0.181-1.501,0.268L40.083,19.988l-0.75,0.375v173l135,54h-135
		L39.831,418.7c0.15,0.195,0.3,0.393,0.451,0.587l0.051-0.036l25.134,20.112h217.866l24.884-20.237l0.055,0.111l0.063-0.088V246.363
		l-135-53h135v-173H308.332z"/>
	<line fill="none" stroke="#000000" stroke-width="2" stroke-miterlimit="10" x1="172.333" y1="193.363" x2="172.333" y2="83.363"/>
	<g>
		<polyline fill="none" stroke="#000000" stroke-width="2" stroke-miterlimit="10" points="150.92,182.168 191.333,168.746 
			191.333,168.763 151.333,157.333 151.333,157.021 192.289,142.927 151.398,132.363 192.322,121.451 150.915,110.041 
			191.333,95.947 191.333,96.579 150.67,82.552 		"/>
	</g>
	<g>
		
			<line fill="none" stroke="#000000" stroke-width="2" stroke-miterlimit="10" x1="173.333" y1="246.363" x2="173.333" y2="356.363"/>
		<g>
			<polyline fill="none" stroke="#000000" stroke-width="2" stroke-miterlimit="10" points="194.204,356.168 153.333,342.746 
				153.333,342.763 193.333,331.333 193.333,331.021 152.836,316.928 193.956,306.363 153.147,295.451 194.152,284.041 
				153.333,269.947 153.333,270.578 194.225,256.551 			"/>
		</g>
	</g>
	<g>
		<g>
			<path d="M41.478,246.789c-3.776-4.423-9.156-7.431-13.339-11.493c-6.083-5.906-11.032-13.131-14.681-20.754
				c-2.583-5.396-4.084-12.083-0.069-17.168c4.562-5.775,9.938-0.244,11.743,4.226c1.859,4.599-4.85,5.52-7.567,5.975
				c-4.647,0.778-7.574-1.8-9.796-5.571c-3.458-5.873-4.635-14.085-3.276-20.64c0.737-3.562,5.248-6.754,7.456-9.493
				c2.036-2.525,3.741-5.194,5.125-8.133c6.345-13.475-0.081-26.334-4.165-39.27c-0.437-1.379-2.608-0.789-2.171,0.599
				c3.591,11.368,8.727,21.459,5.736,33.686c-1.372,5.609-4.919,10.448-8.807,14.583c-3.127,3.325-5.186,5.643-5.828,10.226
				c-1.692,12.052,6.046,32.6,21.451,24.885c6.333-3.171,4.55-8.576,0.413-13.074c-4.657-5.063-12.592-2.229-14.308,4.265
				c-2.685,10.164,3.577,20.22,9.363,28.13c2.942,4.022,6.328,7.843,10.002,11.209c3.561,3.263,7.99,5.732,11.126,9.406
				C40.83,249.485,42.414,247.887,41.478,246.789L41.478,246.789z"/>
		</g>
	</g>
</g>
</svg>
