<?xml version="1.0" encoding="UTF-8"?>
<!DOCTYPE svg PUBLIC "-//W3C//DTD SVG 1.1//EN" "http://www.w3.org/Graphics/SVG/1.1/DTD/svg11.dtd">
<!-- Creator: CorelDRAW -->
<svg xmlns="http://www.w3.org/2000/svg" xml:space="preserve" width="64px" height="64px" shape-rendering="geometricPrecision" text-rendering="geometricPrecision" image-rendering="optimizeQuality" fill-rule="evenodd" clip-rule="evenodd"
viewBox="0 0 640 640"
 xmlns:xlink="http://www.w3.org/1999/xlink">
 <g id="Layer_x0020_1">
  <metadata id="CorelCorpID_0Corel-Layer"/>
  <path fill="black" d="M579.999 0l-519.999 0c-33.0004,0 -60.0007,27.0003 -60.0007,60.0007l0 519.999c0,33.0004 27.0003,60.0007 60.0007,60.0007l519.999 0c33.0004,0 60.0007,-27.0003 60.0007,-60.0007l0 -519.999c0,-33.0004 -27.0003,-60.0007 -60.0007,-60.0007zm-340.032 267.547l136.927 -67.5835c-0.862215,-4.67722 -1.28742,-9.53161 -1.28742,-14.4805 0,-43.4179 35.2209,-78.627 78.6033,-78.627 43.4887,0 78.7096,35.2091 78.7096,78.627 0,43.4769 -35.2209,78.6624 -78.7096,78.6624 -17.1262,0 -32.9886,-5.48038 -45.9454,-14.7994l-143.966 70.9969c0.070867,1.38191 0.106301,2.76381 0.106301,4.15753 0,2.40948 -0.141734,4.78352 -0.342524,7.14576l132.415 65.3512c14.0671,-13.1222 32.9532,-21.1538 53.67,-21.1538 43.4415,0 78.6624,35.1973 78.6624,78.6742 0,43.4179 -35.2209,78.627 -78.6624,78.627 -43.4415,0 -78.6506,-35.2091 -78.6506,-78.627 0,-1.67719 0.070867,-3.31894 0.153545,-4.94888l-133.915 -66.1071c-13.8191,12.2482 -32.0555,19.7128 -51.9337,19.7128 -43.4887,0 -78.7096,-35.2563 -78.7096,-78.6742 0,-43.4533 35.2209,-78.6978 78.7096,-78.6978 20.9648,0 40.0753,8.30325 54.166,21.7444z"/>
 </g>
</svg>
